HIERARCHY
ROOT Hips
{
	OFFSET 0.000000 93.385445 0.000000
	CHANNELS 6 Xposition Yposition Zposition Xrotation Yrotation Zrotation
	JOINT RightUpLeg
	{
		OFFSET -8.267204 -0.002556 0.000284
		CHANNELS 6 Xposition Yposition Zposition Xrotation Yrotation Zrotation
		JOINT RightLeg
		{
			OFFSET 0.000000 -42.978920 0.000356
			CHANNELS 6 Xposition Yposition Zposition Xrotation Yrotation Zrotation
			JOINT RightFoot
			{
				OFFSET 0.000000 -41.964985 0.000601
				CHANNELS 6 Xposition Yposition Zposition Xrotation Yrotation Zrotation
				JOINT RightToeBase
				{
					OFFSET 0.000000 -6.852513 15.501974
					CHANNELS 6 Xposition Yposition Zposition Xrotation Yrotation Zrotation
					End Site
					{
						OFFSET 0.000000 0.000000 16.948986
					}
				}
			}
		}
	}
	JOINT LeftUpLeg
	{
		OFFSET 8.267204 -0.004822 0.000536
		CHANNELS 6 Xposition Yposition Zposition Xrotation Yrotation Zrotation
		JOINT LeftLeg
		{
			OFFSET 0.000000 -42.978920 0.000356
			CHANNELS 6 Xposition Yposition Zposition Xrotation Yrotation Zrotation
			JOINT LeftFoot
			{
				OFFSET 0.000000 -41.964985 0.000601
				CHANNELS 6 Xposition Yposition Zposition Xrotation Yrotation Zrotation
				JOINT LeftToeBase
				{
					OFFSET 0.000000 -6.852513 15.501974
					CHANNELS 6 Xposition Yposition Zposition Xrotation Yrotation Zrotation
					End Site
					{
						OFFSET 0.000000 0.000000 16.948986
					}
				}
			}
		}
	}
	JOINT Spine
	{
		OFFSET 0.000000 10.062492 -1.118055
		CHANNELS 6 Xposition Yposition Zposition Xrotation Yrotation Zrotation
		JOINT Spine1
		{
			OFFSET 0.000000 11.181747 0.000000
			CHANNELS 3 Xrotation Yrotation Zrotation
			JOINT Spine2
			{
				OFFSET 0.000000 10.208565 0.001507
				CHANNELS 6 Xposition Yposition Zposition Xrotation Yrotation Zrotation
				JOINT Spine3
				{
					OFFSET 0.000000 10.197166 0.001508
					CHANNELS 6 Xposition Yposition Zposition Xrotation Yrotation Zrotation
					JOINT LeftShoulder
					{
						OFFSET 3.104119 8.005707 0.000000
						CHANNELS 6 Xposition Yposition Zposition Xrotation Yrotation Zrotation
						JOINT LeftArm
						{
							OFFSET 14.462845 0.000000 0.000000
							CHANNELS 3 Xrotation Yrotation Zrotation
							JOINT LeftForeArm
							{
								OFFSET 30.948917 0.000000 0.000000
								CHANNELS 3 Xrotation Yrotation Zrotation
								JOINT LeftHand
								{
									OFFSET 25.302570 0.000000 0.000000
									CHANNELS 3 Xrotation Yrotation Zrotation
									End Site
									{
										OFFSET 25.302567 0.000000 0.000000
									}
								}
							}
						}
					}
					JOINT RightShoulder
					{
						OFFSET -3.104119 8.005707 0.000000
						CHANNELS 6 Xposition Yposition Zposition Xrotation Yrotation Zrotation
						JOINT RightArm
						{
							OFFSET -14.462845 0.000000 0.000000
							CHANNELS 3 Xrotation Yrotation Zrotation
							JOINT RightForeArm
							{
								OFFSET -30.948917 0.000000 0.000000
								CHANNELS 3 Xrotation Yrotation Zrotation
								JOINT RightHand
								{
									OFFSET -25.302570 0.000000 0.000000
									CHANNELS 3 Xrotation Yrotation Zrotation
									End Site
									{
										OFFSET -25.302567 0.000000 0.000000
									}
								}
							}
						}
					}
					JOINT Neck
					{
						OFFSET 0.000000 14.283447 0.000000
						CHANNELS 6 Xposition Yposition Zposition Xrotation Yrotation Zrotation
						JOINT Head
						{
							OFFSET 0.000000 9.493164 -0.003241
							CHANNELS 6 Xposition Yposition Zposition Xrotation Yrotation Zrotation
							End Site
							{
								OFFSET 0.000000 9.493164 0.000000
							}
						}
					}
				}
			}
		}
	}
}
MOTION
Frames: 9
Frame Time: 0.016667
28.440639 13.319817 -55.348251 -167.679095 44.430555 107.693867 -8.267206 -0.002552 0.000285 -7.311228 7.526228 -14.787645 0.000000 -42.978920 0.000355 65.062743 1.134779 -2.588507 0.000000 -41.964985 0.000604 -20.053975 0.441364 2.723084 0.000002 -6.852512 15.501974 0.000000 -0.000000 -0.000000 8.267202 -0.004820 0.000537 -3.184483 11.506488 -18.453957 0.000000 -42.978916 0.000362 62.110018 -0.364190 -0.766285 0.000000 -41.964985 0.000602 -22.677879 -1.561960 -7.683514 -0.000000 -6.852513 15.501987 0.000000 -0.000000 0.000000 -0.000004 10.062491 -1.118050 6.267431 8.320329 9.531198 -2.869104 3.110630 4.676444 -0.000002 10.208565 0.001511 2.951339 3.110146 4.676763 0.000007 10.197167 0.001513 8.068845 2.655944 3.269175 3.104119 8.005708 0.000002 5.087461 -0.558282 -5.518596 -4.833288 -5.546713 -56.734813 105.632810 -55.572752 101.869956 39.457777 12.893520 11.174596 -3.104125 8.005706 0.000003 1.586125 2.717291 10.904341 -25.419990 29.470200 89.080386 74.559650 20.801474 -17.814047 34.977003 32.469131 -73.722815 -0.000000 14.283453 -0.000003 25.187672 -19.513695 14.341954 -0.000007 9.493177 -0.003240 15.414685 -38.648178 24.076577 
28.375694 13.283058 -55.258579 -167.258355 44.451865 107.496113 -8.267205 -0.002559 0.000284 -7.352787 7.555531 -15.012092 -0.000002 -42.978916 0.000359 65.107173 1.118866 -2.520979 -0.000001 -41.964989 0.000595 -20.023733 0.239163 2.757877 -0.000000 -6.852514 15.501976 0.000001 -0.000000 -0.000001 8.267208 -0.004821 0.000540 -3.345540 11.340018 -18.529002 0.000000 -42.978924 0.000353 62.131499 -0.320252 -0.794688 -0.000000 -41.964981 0.000602 -22.620444 -1.666472 -7.734691 -0.000001 -6.852515 15.501983 -0.000001 0.000000 0.000000 -0.000001 10.062498 -1.118054 6.165595 8.494005 9.562746 -2.910707 3.187676 4.698359 -0.000002 10.208569 0.001509 2.909739 3.187191 4.698683 0.000000 10.197170 0.001509 8.038514 2.715327 3.279745 3.104119 8.005708 -0.000006 4.845935 -0.637631 -5.289608 -4.830026 -5.752068 -57.046898 106.143926 -55.470695 102.070033 40.560904 13.410842 9.374439 -3.104120 8.005713 -0.000006 1.791269 2.837891 11.199735 -25.283620 28.055600 88.393276 75.514182 21.297430 -17.893163 34.911016 32.281561 -73.126013 -0.000002 14.283469 -0.000008 25.075825 -19.475975 14.325140 0.000000 9.493160 -0.003240 15.174959 -38.600855 24.006899 
28.315300 13.250801 -55.169109 -166.857929 44.485247 107.332557 -8.267205 -0.002554 0.000287 -7.427417 7.476749 -15.238574 0.000000 -42.978916 0.000354 65.149090 1.141264 -2.550937 -0.000000 -41.964985 0.000599 -19.997102 0.044163 2.797303 -0.000000 -6.852514 15.501975 0.000000 -0.000001 -0.000002 8.267207 -0.004821 0.000541 -3.514582 11.175657 -18.619690 -0.000000 -42.978924 0.000361 62.151067 -0.279805 -0.833016 0.000001 -41.964993 0.000603 -22.569619 -1.784585 -7.763193 -0.000000 -6.852511 15.501975 -0.000000 -0.000000 0.000000 0.000000 10.062497 -1.118050 6.081588 8.662365 9.574844 -2.944902 3.263123 4.711656 -0.000003 10.208571 0.001506 2.875541 3.262635 4.711996 -0.000002 10.197159 0.001502 8.013713 2.772848 3.284040 3.104115 8.005711 -0.000004 4.584969 -0.674165 -5.114520 -4.889933 -5.875212 -57.283110 106.613379 -55.427030 102.112455 41.299900 13.820622 8.141148 -3.104124 8.005710 -0.000008 2.014257 2.942108 11.438894 -25.317554 26.815041 87.899228 76.421771 21.587771 -17.911258 34.769488 32.180108 -72.747375 -0.000003 14.283441 -0.000007 24.958088 -19.412297 14.308660 -0.000003 9.493164 -0.003240 14.918113 -38.507439 23.936579 
28.263237 13.203972 -55.087181 -166.483990 44.518449 107.191452 -8.267203 -0.002559 0.000283 -7.505189 7.356298 -15.467769 -0.000000 -42.978909 0.000363 65.200194 1.084362 -2.628783 -0.000002 -41.964985 0.000600 -20.018625 -0.076855 2.908136 0.000001 -6.852510 15.501981 0.000000 -0.000000 0.000001 8.267204 -0.004819 0.000536 -3.659914 11.052403 -18.712316 0.000000 -42.978916 0.000361 62.178081 -0.247725 -0.864207 -0.000001 -41.964989 0.000608 -22.529367 -1.944989 -7.731768 -0.000001 -6.852513 15.501966 0.000001 -0.000000 0.000000 0.000001 10.062497 -1.118055 6.021322 8.845397 9.530710 -2.969622 3.347765 4.701389 -0.000004 10.208574 0.001507 2.850818 3.347283 4.701740 0.000002 10.197163 0.001519 7.996103 2.835485 3.270119 3.104118 8.005714 -0.000003 4.590498 -0.720385 -4.936532 -5.299069 -5.994458 -57.433961 106.525830 -55.592429 101.544791 41.314124 13.937696 8.064941 -3.104120 8.005724 -0.000003 2.172210 2.871108 11.593573 -25.484527 26.031248 87.672274 77.284444 21.654961 -17.904844 34.441130 32.208102 -72.636972 -0.000006 14.283474 -0.000007 24.866736 -19.329024 14.333458 0.000003 9.493179 -0.003241 14.730032 -38.378802 23.961642 
28.216171 13.170921 -55.007900 -166.160799 44.561763 107.086172 -8.267205 -0.002561 0.000284 -7.595368 7.247195 -15.675716 -0.000001 -42.978920 0.000352 65.251898 1.031377 -2.703604 -0.000003 -41.964985 0.000602 -20.037924 -0.215311 3.018406 0.000002 -6.852509 15.501977 -0.000001 -0.000000 0.000001 8.267206 -0.004832 0.000538 -3.824754 10.902108 -18.794464 -0.000000 -42.978916 0.000354 62.208072 -0.213367 -0.909114 0.000001 -41.964985 0.000602 -22.487626 -2.094652 -7.695717 0.000000 -6.852513 15.501976 0.000000 0.000000 -0.000000 -0.000001 10.062497 -1.118053 5.970233 9.028254 9.458112 -2.990975 3.433774 4.678720 -0.000005 10.208574 0.001503 2.829466 3.433286 4.679077 0.000007 10.197169 0.001508 7.981024 2.898228 3.246849 3.104118 8.005709 -0.000005 4.657435 -0.834692 -4.782278 -5.700887 -6.127595 -57.492291 106.185167 -55.793756 100.854969 41.095729 13.957018 8.393318 -3.104120 8.005705 -0.000006 2.271094 2.740866 11.702373 -25.679647 25.856484 87.606718 77.577698 21.578422 -17.819835 34.144403 32.311607 -72.672646 0.000001 14.283459 -0.000008 24.775661 -19.218305 14.359508 -0.000005 9.493173 -0.003243 14.537310 -38.200223 23.990599 
28.171238 13.185097 -54.928009 -165.919024 44.631335 107.023996 -8.267203 -0.002559 0.000288 -7.701475 7.244710 -15.827346 0.000001 -42.978912 0.000360 65.290345 1.042619 -2.689689 -0.000003 -41.964985 0.000592 -20.005267 -0.460583 3.060964 0.000001 -6.852513 15.501961 0.000000 -0.000000 0.000000 8.267204 -0.004824 0.000542 -4.056437 10.660490 -18.838632 -0.000000 -42.978916 0.000364 62.232927 -0.171628 -0.980142 0.000001 -41.964985 0.000604 -22.420472 -2.165956 -7.708284 -0.000000 -6.852516 15.501979 -0.000001 -0.000000 -0.000000 -0.000002 10.062500 -1.118049 5.916254 9.196459 9.370533 -3.014277 3.514222 4.648579 0.000003 10.208568 0.001505 2.806163 3.513745 4.648933 0.000004 10.197162 0.001513 7.964407 2.956304 3.218381 3.104116 8.005700 -0.000000 4.683768 -1.152721 -4.661435 -5.759651 -6.297072 -57.422937 105.745460 -55.905245 100.501193 41.076986 13.997703 8.520539 -3.104117 8.005708 0.000001 2.263858 2.602165 11.795086 -25.796776 26.808043 87.661735 76.444263 21.417827 -17.548172 34.136869 32.453033 -72.734316 0.000003 14.283455 0.000004 24.664713 -19.074628 14.345566 -0.000003 9.493172 -0.003240 14.278643 -37.959750 23.931506 
28.130802 13.212143 -54.849949 -165.746684 44.698206 107.012597 -8.267206 -0.002563 0.000289 -7.805802 7.287510 -15.956155 0.000000 -42.978916 0.000364 65.349085 1.070191 -2.641502 -0.000002 -41.964989 0.000597 -19.969427 -0.752510 3.086805 -0.000002 -6.852514 15.501975 0.000000 -0.000000 0.000001 8.267204 -0.004824 0.000542 -4.310616 10.354889 -18.878173 0.000000 -42.978924 0.000354 62.273266 -0.110719 -1.085480 0.000001 -41.964989 0.000596 -22.369413 -2.231975 -7.739111 -0.000000 -6.852515 15.501982 -0.000000 -0.000000 -0.000000 0.000001 10.062499 -1.118049 5.857785 9.368462 9.274190 -3.039782 3.596942 4.614671 0.000003 10.208570 0.001511 2.780659 3.596469 4.615038 0.000001 10.197168 0.001511 7.946158 3.015815 3.186924 3.104115 8.005700 0.000004 4.649018 -1.498540 -4.573957 -5.698925 -6.571623 -57.292552 105.177140 -55.947060 100.152778 41.101937 14.036983 8.562217 -3.104125 8.005712 -0.000001 2.224271 2.489123 11.869115 -25.860590 28.073326 87.752187 74.884111 21.195918 -17.290004 34.199655 32.626017 -72.872757 -0.000007 14.283443 0.000002 24.549259 -18.896044 14.336311 0.000005 9.493186 -0.003241 14.007149 -37.657234 23.883624 
28.095432 13.224403 -54.773399 -165.647797 44.735318 107.070237 -8.267205 -0.002554 0.000282 -7.893124 7.350189 -16.090485 -0.000000 -42.978920 0.000356 65.474316 1.087428 -2.578456 -0.000002 -41.964985 0.000604 -19.968958 -1.080014 3.131239 -0.000000 -6.852518 15.501975 -0.000000 -0.000000 -0.000000 8.267201 -0.004811 0.000537 -4.566349 9.972225 -18.941800 0.000001 -42.978916 0.000349 62.359859 -0.004181 -1.251787 0.000001 -41.964989 0.000599 -22.386375 -2.373092 -7.774630 0.000000 -6.852514 15.501975 -0.000000 0.000000 -0.000000 0.000001 10.062504 -1.118053 5.783404 9.573101 9.176727 -3.071943 3.694456 4.581728 -0.000005 10.208566 0.001508 2.748502 3.693987 4.582111 -0.000001 10.197171 0.001517 7.923085 3.086487 3.155073 3.104119 8.005712 -0.000006 4.455303 -1.697352 -4.517380 -5.623019 -7.138139 -57.179656 104.390316 -55.796283 99.526300 41.146088 14.109258 8.370990 -3.104120 8.005705 -0.000007 2.208744 2.464342 11.940280 -25.817832 28.964746 87.722667 73.689572 20.983321 -17.263373 34.137275 32.809261 -73.116451 -0.000002 14.283441 -0.000005 24.439431 -18.663994 14.374434 -0.000002 9.493158 -0.003239 13.759262 -37.263354 23.939263 
28.067608 13.235382 -54.703480 -165.606870 44.752960 107.175101 -8.267206 -0.002554 0.000287 -7.961603 7.420807 -16.211488 -0.000002 -42.978920 0.000364 65.611938 1.090679 -2.520362 -0.000001 -41.964985 0.000599 -19.980938 -1.384541 3.174891 0.000001 -6.852510 15.501972 0.000000 -0.000000 -0.000000 8.267204 -0.004819 0.000541 -4.802693 9.570342 -19.016794 0.000000 -42.978920 0.000355 62.455202 0.107547 -1.436874 0.000001 -41.964993 0.000602 -22.416993 -2.498180 -7.816328 0.000000 -6.852511 15.501972 0.000001 0.000000 0.000000 -0.000002 10.062502 -1.118049 5.711280 9.765184 9.088169 -3.103182 3.785835 4.551962 -0.000002 10.208579 0.001513 2.717257 3.785363 4.552354 -0.000000 10.197172 0.001504 7.900626 3.152780 3.126012 3.104121 8.005709 -0.000000 4.226888 -1.883741 -4.513626 -5.555924 -7.661810 -57.022528 103.727043 -55.747178 98.943596 41.248479 14.158672 8.129666 -3.104121 8.005728 -0.000000 2.219456 2.494381 11.986594 -25.765794 29.628251 87.707757 72.615730 20.731878 -17.296003 34.135062 33.009550 -73.410825 -0.000003 14.283451 -0.000004 24.328210 -18.423894 14.423809 0.000009 9.493176 -0.003244 13.512659 -36.856968 24.019112 
